<?xml version="1.0" standalone="no"?><!DOCTYPE svg PUBLIC "-//W3C//DTD SVG 1.1//EN" "http://www.w3.org/Graphics/SVG/1.1/DTD/svg11.dtd"><svg t="1609751197403" class="icon" viewBox="0 0 1429 1024" version="1.1" xmlns="http://www.w3.org/2000/svg" p-id="4124" xmlns:xlink="http://www.w3.org/1999/xlink" width="279.1015625" height="200"><defs><style type="text/css"></style></defs><path d="M46.745 11.554H1382.95c19.334 0 35.19 15.856 35.19 35.19v70.442a35.31 35.31 0 0 1-35.19 35.191h-64.842v134.104h44.328c30.652 0 55.705 25.112 55.705 55.764v614.461c0 30.653-25.053 55.764-55.705 55.764h-111.586a55.882 55.882 0 0 1-55.705-55.764l-1.591-269.504a203.425 203.425 0 0 0-401.605 0l-0.884 287.542c0 20.75-16.977 37.726-37.726 37.726h-75.452a37.844 37.844 0 0 1-37.726-37.726l-1.65-287.542a204.663 204.663 0 0 0-403.61 0l-0.412 269.504c0 30.653-25.111 55.764-55.763 55.764H67.317a55.882 55.882 0 0 1-55.763-55.764V342.245c0-30.652 25.11-55.764 55.763-55.764h35.663V152.377H46.745a35.31 35.31 0 0 1-35.191-35.19V46.744c0-19.335 15.856-35.191 35.19-35.191z m1212.653 140.882h-230.423v134.045h230.482V152.377z m-289.075 0H739.841v134.045h230.482V152.377z m-289.134 0H450.766v134.045h230.482V152.377z m-289.075 0H161.691v134.045h230.423V152.377z" p-id="4125"></path></svg>