<?xml version="1.0" standalone="no"?><!DOCTYPE svg PUBLIC "-//W3C//DTD SVG 1.1//EN" "http://www.w3.org/Graphics/SVG/1.1/DTD/svg11.dtd"><svg t="1609751192038" class="icon" viewBox="0 0 1024 1024" version="1.1" xmlns="http://www.w3.org/2000/svg" p-id="3984" xmlns:xlink="http://www.w3.org/1999/xlink" width="200" height="200"><defs><style type="text/css"></style></defs><path d="M957.3 408.1H66.7C29.9 408.1 0 438 0 474.8v504.4c0 24.6 20 44.6 44.6 44.6s44.6-20 44.6-44.6V811.6h845.6v167.6c0 24.6 20 44.6 44.6 44.6s44.6-20 44.6-44.6V474.8c0-36.8-29.9-66.7-66.7-66.7z m-97.4 124.5c0 28.3-22.9 51.2-51.2 51.2H700c-28.3 0-51.2-22.9-51.2-51.2 0-28.3 22.9-51.2 51.2-51.2h108.7c28.3 0 51.2 23 51.2 51.2zM169.8 307.2H369c8.3 0 16-4.4 20.2-11.6L502.8 98.8c9-15.5-2.2-34.9-20.2-34.9H283.4c-8.3 0-16 4.4-20.2 11.6L149.6 272.3c-9 15.5 2.2 34.9 20.2 34.9zM531.3 307.2h199.2c8.3 0 16-4.4 20.2-11.6L864.4 98.8c9-15.5-2.2-34.9-20.2-34.9H645c-8.3 0-16 4.4-20.2 11.6L511.2 272.3c-9 15.5 2.2 34.9 20.1 34.9zM32.2 307.2h9.1c11.1 0 21.3-5.9 26.8-15.5l104.7-181.4c11.9-20.7-3-46.5-26.8-46.5H32.2C14.4 63.9 0 78.3 0 96.1V275c0 17.8 14.4 32.2 32.2 32.2zM1024 95.6c-0.3-21.1-28.3-28.2-38.9-9.9L875.3 276c-8 13.9 2 31.2 18 31.2h98.5c17.8 0 32.2-14.4 32.2-32.2V96.1v-0.5z" p-id="3985"></path></svg>