<?xml version="1.0" standalone="no"?><!DOCTYPE svg PUBLIC "-//W3C//DTD SVG 1.1//EN" "http://www.w3.org/Graphics/SVG/1.1/DTD/svg11.dtd"><svg t="1609401522993" class="icon" viewBox="0 0 1280 1024" version="1.1" xmlns="http://www.w3.org/2000/svg" p-id="2816" xmlns:xlink="http://www.w3.org/1999/xlink" width="250" height="200"><defs><style type="text/css"></style></defs><path d="M182.739627 241.578667c38.826667-97.706667 120.149333-123.349333 189.696-123.349334 104.874667 0 214.954667 80.682667 274.133333 210.133334 60.8-131.157333 173.013333-210.133333 274.218667-210.133334 69.546667 0 131.968 29.269333 166.826666 78.336 41.514667 58.368 55.04 138.197333 5.717334 230.101334a689.792 689.792 0 0 1 126.165333-0.512c32.426667-111.957333 21.162667-221.056-35.712-298.24C1120.979627 42.837333 1028.478293 0 920.787627 0c-101.845333 0-194.901333 47.872-274.176 134.698667C567.379627 47.872 474.323627 0 372.478293 0 253.99296 0 137.89696 61.141333 85.459627 169.941333c9.173333 21.973333 53.461333 48.64 97.28 71.68z" p-id="2817"></path><path d="M937.086293 576.426667c1.706667-26.197333 1.706667-47.445333 17.408-67.84-162.56 86.058667-174.208 270.72-269.824 394.794666-23.722667-149.589333-109.952-308.736-178.133333-395.221333-49.194667-62.293333-106.026667-126.805333-146.901333-187.861333 1.109333 26.581333-5.674667 57.429333-4.778667 83.968C287.52896 311.509333-5.59104 258.133333 36.563627 128c-63.658667 90.666667-36.778667 320.682667 25.6 415.616 94.72 144.042667 278.4 182.058667 409.898666 280.490667 65.109333 48.682667 134.826667 109.909333 193.706667 199.893333 95.104-140.672 195.584-202.069333 279.381333-260.736 58.88-41.173333 104.96-75.264 155.904-126.592 58.581333-59.008 82.432-151.210667 179.072-160.170667-50.944-7.381333-289.066667-33.237333-343.04 99.882667z" p-id="2818"></path></svg>