<?xml version="1.0" standalone="no"?>
<!DOCTYPE svg PUBLIC "-//W3C//DTD SVG 1.1//EN" "http://www.w3.org/Graphics/SVG/1.1/DTD/svg11.dtd"><svg t="1609401447987"
    class="icon" viewBox="0 0 1024 1024" version="1.1" xmlns="http://www.w3.org/2000/svg" p-id="2690"
    xmlns:xlink="http://www.w3.org/1999/xlink" width="200" height="200">
    <defs>
        <style type="text/css"></style>
    </defs>
    <path
        d="M511 374.5h3.9c88.9-1 160.7-72 160.7-159.2v-53.1C675.5 74.3 602.7 3 512.9 3c-89.8 0-162.6 71.3-162.6 159.3v53.1c0 87.2 71.8 158.1 160.7 159.1z m315.5 23.2c57.7 0 104.5-44.6 104.5-99.5v-33.3c0-55-46.8-99.5-104.5-99.5S722 210 722 264.9v33.2c0 55 46.8 99.6 104.5 99.6z m-627.2 0c57.7 0 104.5-44.6 104.5-99.5v-33.3c0-55-46.8-99.5-104.5-99.5S94.8 210 94.8 264.8V298c-0.1 55.1 46.7 99.7 104.5 99.7zM48.5 499C21.1 513 2 544.3 2 581v40.9C2 649 17.6 671.5 39 679c33.3 8.7 67.5 14.5 102.3 17.7v-72.2c0-64.5 23.3-121.1 58.9-156.9h-0.9c-53-0.2-104 11-150.8 31.4z m929.2 0.2c-46.9-20.5-97.9-31.8-151.2-31.8h-0.8c35.7 35.9 58.9 92.5 58.9 156.9v72.3c34.8-3.2 69-9 102.1-17.7 21.4-7.3 37.3-30 37.3-57.2v-40.5c0-36.8-19.1-67.9-46.3-82zM744 495.1c-71.8-33-149.7-51-231.1-51-81.3 0-158.9 18.1-230.6 50.8C240.4 517 211 567.1 211 625.7v65.4c0 43.3 24 79.6 56.7 91.4 79 21.4 161 33.2 245.3 33.2 84.3 0 166.1-11.5 245-33.1 33-11.7 56.9-48.1 56.9-91.4v-65.4c0.1-58.4-29.2-108.4-70.9-130.7z m0 0"
        fill="" p-id="2691"></path>
</svg>