<?xml version="1.0" standalone="no"?><!DOCTYPE svg PUBLIC "-//W3C//DTD SVG 1.1//EN" "http://www.w3.org/Graphics/SVG/1.1/DTD/svg11.dtd"><svg t="1609401692701" class="icon" viewBox="0 0 1024 1024" version="1.1" xmlns="http://www.w3.org/2000/svg" p-id="2943" xmlns:xlink="http://www.w3.org/1999/xlink" width="200" height="200"><defs><style type="text/css"></style></defs><path d="M269.824 263.168l173.568-150.016c47.616-40.448 110.592-50.688 165.888-26.624l276.48 119.808c18.432 8.192 37.376 11.776 55.808 11.776h45.568c13.312 0 24.576 11.776 24.576 26.624v385.536c0 14.848-11.264 27.648-24.576 27.648h-59.904c-8.192 0-17.408 3.584-23.552 9.216l-13.312 12.8c-3.072 3.584-8.192 2.048-11.264-1.024l-322.048-445.44c-8.192-11.776-22.528-13.824-33.792-6.656L376.32 320c-29.696 18.432-65.024 20.48-96.256 5.632-16.384-8.192-24.576-30.208-17.408-49.664 0-4.608 3.072-9.216 7.168-12.8zM41.984 656.896h51.712l36.352-50.688c32.256-45.056 91.136-50.688 131.072-13.824 14.848 14.336 25.6 32.768 30.208 53.248 31.232 9.216 55.808 36.864 65.024 72.704 22.528 8.192 42.496 24.064 53.76 48.64 19.456 3.584 37.376 13.824 51.712 30.208 29.696 35.84 35.328 89.088 13.312 131.584l-5.12 10.24v1.024c24.576 18.432 56.832 12.8 74.24-14.848 8.192-13.824 11.264-30.208 8.192-46.08v-1.024h1.024l4.096 4.608c18.432 20.48 47.616 24.064 69.12 8.192 17.408-13.824 25.088-37.888 21.504-60.928v-1.024h1.024l4.096 4.608c18.432 20.992 46.592 24.064 69.12 8.192 17.408-13.824 26.624-37.888 22.528-60.928v-1.024h1.024l4.096 4.608c17.408 19.456 44.544 23.04 65.024 9.216 25.088-17.408 33.792-54.272 18.432-82.944-2.048-3.584-4.096-6.656-6.144-9.216l-32.256-45.056-263.168-363.52c-3.072-3.584-7.168-4.608-11.264-2.048L394.752 368.128c-40.448 25.6-88.576 30.208-132.096 11.776-24.576-9.216-42.496-31.232-51.712-57.856-7.168-27.648-4.096-57.856 9.216-81.92 3.072-6.656 1.024-14.848-5.12-18.432-2.048-1.024-4.096-1.024-6.144-1.024H36.864c-13.312 0-24.576 11.776-24.576 26.624v384c5.632 13.824 16.384 25.6 29.696 25.6z m182.784-27.648c-20.48-12.8-44.544-6.656-58.88 13.824l-35.328 49.664c-15.36 22.016-13.312 54.272 6.144 71.68h1.024l5.12 4.608c13.824 12.288 33.792 14.336 49.664 4.608 1.024-1.024 2.048 0 3.072 1.024v2.048c-3.072 18.432 3.072 37.888 16.384 49.664l4.096 3.584c14.336 12.8 32.256 13.824 48.64 5.632 1.024-1.024 3.072 0 3.072 1.024v1.024c-2.048 17.408 5.12 34.816 17.408 46.08l3.072 2.048c14.336 12.8 32.256 14.848 48.64 4.608 1.024-1.024 3.072 0 3.072 1.024v1.024c2.048 12.8 8.192 24.064 17.408 32.256l2.048 1.024c20.48 17.408 48.64 13.824 64-9.216 1.024-2.048 3.072-4.608 4.096-5.632l6.144-12.8c11.264-22.016 8.192-48.64-8.192-65.536-13.312-13.824-32.256-17.408-49.664-9.216-1.024 0-1.024 0-2.048-1.024v-1.024c1.024-27.648-18.432-51.712-42.496-54.272-6.144 0-12.288 1.024-18.432 3.584-7.168 1.024-5.12-5.632-5.12-5.632 9.216-26.624-1.024-55.296-24.576-67.072-12.288-5.632-27.648-4.608-38.4 2.048-5.12 1.024-4.096-4.608-4.096-4.608 12.8-21.504 5.632-52.224-15.872-66.048z m0 0" p-id="2944"></path></svg>