<?xml version="1.0" standalone="no"?><!DOCTYPE svg PUBLIC "-//W3C//DTD SVG 1.1//EN" "http://www.w3.org/Graphics/SVG/1.1/DTD/svg11.dtd"><svg t="1609400910162" class="icon" viewBox="0 0 1024 1024" version="1.1" xmlns="http://www.w3.org/2000/svg" p-id="2564" xmlns:xlink="http://www.w3.org/1999/xlink" width="200" height="200"><defs><style type="text/css"></style></defs><path d="M927.509199 147.713776L522.230017 3.214783a24.722542 24.722542 0 0 0-24.381541 0L92.398794 147.969526c-16.368028 8.354514-28.388298 25.575043-28.388298 42.454572v293.345743c0 59.41935 12.276021 119.0092 32.480305 170.074036 56.861846 148.84675 182.435307 225.401379 300.080505 301.956008 32.395054 17.135279 64.790109 38.362565 93.178407 59.675101 8.098764 4.262507 16.197527 8.525014 24.29629 8.525014 8.184014 0 16.197527-4.262507 20.204284-8.525014 32.480305-21.483036 60.783352-38.362565 93.178407-59.675101 117.645198-76.554629 243.218659-153.109258 300.080505-301.956008 20.460034-51.064836 32.480305-106.136429 32.480305-170.074036V190.168347c0-16.879528-12.276021-33.844307-32.480305-42.454571z m-27.194796 334.606813c0 54.645342-8.695515 104.857676-25.830793 150.381253-51.832087 127.448964-164.021276 200.167337-284.735479 277.744967-25.830793 18.158281-51.661587 31.968804-77.577631 50.127084-25.830793-18.158281-51.746837-31.968804-77.57763-50.127084-120.714203-72.718372-232.903392-145.777745-284.735479-277.744967a423.522712 423.522712 0 0 1-25.830794-150.381253V199.972114L512.1705 63.571884l388.143903 136.40023v282.348475z m-716.612705 3.836256c0 46.802329 7.331512 89.683151 21.909287 128.727717 43.818574 113.04169 138.701983 175.615295 240.831655 237.8479 21.909287 15.515526 43.818574 27.280046 65.64261 42.880822V127.679992L183.786948 244.472689v241.684156z" p-id="2565"></path></svg>