<?xml version="1.0" standalone="no"?><!DOCTYPE svg PUBLIC "-//W3C//DTD SVG 1.1//EN" "http://www.w3.org/Graphics/SVG/1.1/DTD/svg11.dtd"><svg t="1609401940803" class="icon" viewBox="0 0 1025 1024" version="1.1" xmlns="http://www.w3.org/2000/svg" p-id="3069" xmlns:xlink="http://www.w3.org/1999/xlink" width="200.1953125" height="200"><defs><style type="text/css"></style></defs><path d="M1015.55065 640.7c-21.4-56.2-101.3-19.5-101.3-19.5l-252.9 97.3c-8.2 4.5-16.9 6.9-25 8.9-22.5 5.7-31.3 1.9-68.5-11.6-37.2-13.4-105.6-34-124.6-41.8-19-7.7-16.2-26.8-16.2-26.8 3.8-23.9 47.8-8 47.8-8s115.1 43.4 139.1 46.9c21.3 3.1 35.6-27.3 35.6-27.3 1-1.6 2.1-4.8 2.1-6.4 0-16.1-28.5-32.9-28.5-32.9l-219.4-130s-45.8-42.6-131.8-42.6C185.85065 446.9 36.65065 571 36.65065 571-16.24935 626.7-7.54935 854 35.15065 882.2c42.7 28.2 143.8 20.2 191.5 22.6 47.7 2.4 123.8 24.9 220.1 54.4 96.4 29.5 204.8 27.2 251.5 0 52.2-30.4 284.1-197.3 299.3-210.3 15.4-13.1 39.4-52 18-108.2zM8.55065 383.1c21.4 56.2 101.3 19.5 101.3 19.5l252.9-97.3c8.2-4.5 16.9-6.9 25-8.9 22.5-5.7 31.3-1.8 68.5 11.6s105.6 34 124.6 41.8c19 7.7 16.2 26.7 16.2 26.7-3.8 23.9-47.8 8-47.8 8S434.05065 341.1 410.15065 337.6c-21.3-3.1-35.6 27.3-35.6 27.3-1 1.5-2.1 4.8-2.1 6.4 0 16.1 28.5 32.9 28.5 32.9l219.3 130.1s45.8 42.6 131.8 42.6c86.1 0 235.3-124.1 235.3-124.1 52.9-55.7 44.2-283 1.5-311.3-42.7-28.2-143.8-20.1-191.5-22.5-47.7-2.4-123.7-24.9-220.1-54.4-96.4-29.5-204.8-27.3-251.5 0C273.45065 95 41.65065 261.8 26.35065 274.9 11.05065 287.9-12.84935 326.8 8.55065 383.1z m0 0" p-id="3070"></path></svg>