<?xml version="1.0" standalone="no"?><!DOCTYPE svg PUBLIC "-//W3C//DTD SVG 1.1//EN" "http://www.w3.org/Graphics/SVG/1.1/DTD/svg11.dtd"><svg t="1609396752395" class="icon" viewBox="0 0 1024 1024" version="1.1" xmlns="http://www.w3.org/2000/svg" p-id="2438" xmlns:xlink="http://www.w3.org/1999/xlink" width="200" height="200"><defs><style type="text/css"></style></defs><path d="M978.688 154.048c-3.84-27.84-21.76-41.344-49.28-34.88-19.456 4.544-38.336 11.52-57.408 17.664-36.48 11.584-73.536 18.112-112 14.72-45.312-4.096-85.888-20.736-123.392-45.696C596.48 79.104 562.816 45.184 532.16 8.128L526.144 0.832l-4.416 5.632C478.72 63.744 424.96 107.072 356.8 130.752c-72.64 25.216-144.32 18.56-215.104-8.64a115.392 115.392 0 0 0-24.896-7.04c-20.48-2.944-35.712 5.568-44.416 24.512-3.392 7.36-5.312 15.36-7.872 23.104v16.384l4.48 45.824c13.44 143.232 32 285.696 70.016 424.96 13.76 50.432 31.04 99.648 56.128 145.92 19.52 35.968 48.96 62.016 81.024 85.824 70.72 52.544 147.392 95.104 226.112 134.08 4.544 2.24 8.896 4.992 13.312 7.488h4.48c13.44-6.016 27.072-11.904 40.512-17.984a1258.112 1258.112 0 0 0 236.8-138.88c16.64-12.48 29.184-28.16 39.936-45.632 25.856-41.856 42.816-87.552 57.6-134.144 25.6-80.64 44.032-163.136 56.704-246.72a4485.76 4485.76 0 0 0 21.888-172.544c3.072-27.84 3.52-55.936 5.184-83.84 0.384-5.44 0.896-10.88 1.344-16.256v-7.424c-0.448-1.92-1.088-3.84-1.344-5.76zM804.224 396.16c-1.28 2.176-4.096 3.456-6.272 5.12l-133.12 103.872c-9.344 7.296-9.728 8.64-6.016 20.224 17.6 54.912 35.2 109.888 52.672 164.864 3.008 9.344-0.448 15.68-10.112 15.936-1.536-0.768-4.736-2.112-7.552-3.904l-145.6-95.36c-10.368-6.784-11.136-6.784-21.12 0.192l-138.816 97.344c-1.6 1.152-3.264 2.24-4.864 3.456-4.48 3.392-9.152 5.248-14.208 1.472-4.8-3.584-4.352-8.256-2.88-13.44 8.448-29.248 16.64-58.56 24.96-87.872l22.72-80c3.008-10.496 2.496-11.968-6.72-18.688L268.544 408.128l-3.008-2.176c-4.736-3.136-7.936-7.04-5.952-13.056 1.856-5.696 6.592-6.72 11.904-6.848 8.896-0.32 17.792-0.832 26.752-1.152 50.56-2.112 101.12-4.288 151.68-6.08 7.68-0.256 11.52-3.328 13.952-10.496 18.496-54.912 37.312-109.696 56-164.48 0.384-1.216 0.448-2.752 1.28-3.52 3.008-2.752 5.952-6.656 9.6-7.68 5.12-1.28 8.384 2.688 10.24 7.616l35.648 94.528 26.24 69.504c4.224 11.136 4.928 11.648 16.64 11.776l170.432 1.664c2.752 0 5.76-0.64 8.128 0.384 3.776 1.536 8.96 3.584 10.048 6.656 1.088 3.072-1.856 7.872-3.84 11.456z" fill="" p-id="2439"></path></svg>