<?xml version="1.0" standalone="no"?><!DOCTYPE svg PUBLIC "-//W3C//DTD SVG 1.1//EN" "http://www.w3.org/Graphics/SVG/1.1/DTD/svg11.dtd"><svg t="1609751151459" class="icon" viewBox="0 0 1024 1024" version="1.1" xmlns="http://www.w3.org/2000/svg" p-id="3564" xmlns:xlink="http://www.w3.org/1999/xlink" width="200" height="200"><defs><style type="text/css"></style></defs><path d="M658.322286 101.449143c10.605714 0 18.870857 3.547429 20.077714 15.36V172.251429c0 10.605714-9.472 22.418286-20.077714 22.418285h-82.578286v79.030857c0 9.435429-7.094857 22.418286-17.700571 22.418286H501.394286c-10.605714 0-18.870857-11.776-18.870857-22.418286V194.669714h-82.578286c-10.605714 0-18.870857-11.812571-18.870857-22.418285V115.638857c0-9.472 8.265143-14.189714 18.870857-14.189714h82.578286V14.153143c0-9.435429 8.265143-14.153143 18.870857-14.153143h55.478857c10.605714 0 18.870857 3.547429 18.870857 14.153143v87.296H658.285714z m297.325714 864.438857c15.36 0 28.306286 12.982857 28.306286 28.306286 0 15.36-12.982857 28.306286-28.306286 28.306285H101.449143A28.708571 28.708571 0 0 1 73.142857 994.194286c0-15.36 12.982857-28.306286 28.306286-28.306286h18.870857V197.851429c0-33.060571 4.754286-33.060571 9.435429-33.060572H323.291429v33.060572c0 40.082286 33.024 77.860571 74.349714 77.860571h28.306286v23.588571c0 41.325714 33.024 79.030857 74.313142 79.030858h56.649143c41.289143 0 74.313143-37.741714 74.313143-79.030858v-23.588571h27.136c41.325714 0 75.52-36.571429 75.52-77.897143v-33.024h193.462857c4.754286 0 9.472 0 9.472 33.060572V965.851429h18.870857zM263.094857 439.698286v88.502857h222.976v-88.502857c0-5.888-4.717714-4.754286-9.435428-4.754286H272.530286c-4.754286 0-9.435429 0-9.435429 4.754286z m224.182857 418.816V583.68H264.228571v274.870857c0 5.924571 4.754286 14.153143 9.435429 14.153143h204.105143c4.754286 0 9.435429-9.435429 9.435428-14.153143z m83.748572-418.816v88.502857h222.976v-88.502857c0-5.888-5.888-4.754286-10.605715-4.754286H579.291429c-4.754286 0-8.265143 0-8.265143 4.754286z m222.976 418.816V583.68h-222.976v274.870857c0 5.924571 3.547429 14.153143 8.265143 14.153143h204.068571c4.754286 0 10.642286-9.435429 10.642286-14.153143z" p-id="3565"></path></svg>