<?xml version="1.0" standalone="no"?><!DOCTYPE svg PUBLIC "-//W3C//DTD SVG 1.1//EN" "http://www.w3.org/Graphics/SVG/1.1/DTD/svg11.dtd"><svg t="1609751143553" class="icon" viewBox="0 0 1024 1024" version="1.1" xmlns="http://www.w3.org/2000/svg" p-id="3424" xmlns:xlink="http://www.w3.org/1999/xlink" width="200" height="200"><defs><style type="text/css"></style></defs><path d="M736.6 588.6V327.4L534.2 179V102.6h180V5.6H509v173.4L304 335.4v253.2H51.6v429.8h372.2v-165c0-49 40.6-88.6 90.8-88.6 51.2 0 92.8 40.6 92.8 90.6v163.2h365v-430H736.6zM517 524c-50.2 0-90.8-39.6-90.8-88.6 0-49 40.6-88.6 90.8-88.6 50.2 0 90.8 39.6 90.8 88.6 0 48.8-40.6 88.6-90.8 88.6z" fill="" p-id="3425"></path></svg>